<mxfile host="app.diagrams.net" agent="Mozilla/5.0 (Macintosh; Intel Mac OS X 10_15_7) AppleWebKit/537.36 (KHTML, like Gecko) Chrome/134.0.0.0 Safari/537.36" version="26.1.1">
  <diagram name="Page-1" id="e7e014a7-5840-1c2e-5031-d8a46d1fe8dd">
    <mxGraphModel dx="1026" dy="650" grid="1" gridSize="10" guides="1" tooltips="1" connect="1" arrows="1" fold="1" page="1" pageScale="1" pageWidth="1169" pageHeight="826" background="none" math="0" shadow="0">
      <root>
        <mxCell id="0" />
        <mxCell id="1" parent="0" />
        <mxCell id="JtmKRVAryMtHlBli8rb_-41" value="" style="ellipse;html=1;shape=startState;fillColor=#000000;strokeColor=#ff0000;" vertex="1" parent="1">
          <mxGeometry x="90" y="60" width="30" height="30" as="geometry" />
        </mxCell>
        <mxCell id="JtmKRVAryMtHlBli8rb_-42" value="" style="edgeStyle=orthogonalEdgeStyle;html=1;verticalAlign=bottom;endArrow=open;endSize=8;strokeColor=#ff0000;rounded=0;" edge="1" source="JtmKRVAryMtHlBli8rb_-41" parent="1">
          <mxGeometry relative="1" as="geometry">
            <mxPoint x="230" y="75" as="targetPoint" />
          </mxGeometry>
        </mxCell>
        <mxCell id="JtmKRVAryMtHlBli8rb_-45" value="" style="endArrow=classic;html=1;rounded=0;exitX=1;exitY=0.5;exitDx=0;exitDy=0;" edge="1" parent="1">
          <mxGeometry width="50" height="50" relative="1" as="geometry">
            <mxPoint x="340" y="75" as="sourcePoint" />
            <mxPoint x="440" y="75" as="targetPoint" />
          </mxGeometry>
        </mxCell>
        <mxCell id="JtmKRVAryMtHlBli8rb_-47" value="Create New Trip" style="rounded=1;whiteSpace=wrap;html=1;" vertex="1" parent="1">
          <mxGeometry x="230" y="45" width="120" height="60" as="geometry" />
        </mxCell>
        <mxCell id="JtmKRVAryMtHlBli8rb_-48" value="Type Name" style="rounded=1;whiteSpace=wrap;html=1;" vertex="1" parent="1">
          <mxGeometry x="440" y="45" width="120" height="60" as="geometry" />
        </mxCell>
        <mxCell id="JtmKRVAryMtHlBli8rb_-49" value="" style="rhombus;whiteSpace=wrap;html=1;" vertex="1" parent="1">
          <mxGeometry x="450" y="140" width="80" height="40" as="geometry" />
        </mxCell>
        <mxCell id="JtmKRVAryMtHlBli8rb_-50" value="" style="endArrow=classic;html=1;rounded=0;exitX=0.425;exitY=0.983;exitDx=0;exitDy=0;exitPerimeter=0;" edge="1" parent="1" source="JtmKRVAryMtHlBli8rb_-48" target="JtmKRVAryMtHlBli8rb_-49">
          <mxGeometry width="50" height="50" relative="1" as="geometry">
            <mxPoint x="350" y="85" as="sourcePoint" />
            <mxPoint x="450" y="85" as="targetPoint" />
          </mxGeometry>
        </mxCell>
        <mxCell id="JtmKRVAryMtHlBli8rb_-51" value="" style="endArrow=classic;html=1;rounded=0;exitX=1;exitY=0.5;exitDx=0;exitDy=0;entryX=0;entryY=0;entryDx=0;entryDy=0;" edge="1" parent="1" source="JtmKRVAryMtHlBli8rb_-49" target="JtmKRVAryMtHlBli8rb_-52">
          <mxGeometry width="50" height="50" relative="1" as="geometry">
            <mxPoint x="440" y="250" as="sourcePoint" />
            <mxPoint x="580" y="230" as="targetPoint" />
          </mxGeometry>
        </mxCell>
        <mxCell id="JtmKRVAryMtHlBli8rb_-52" value="Prompt User" style="rounded=1;whiteSpace=wrap;html=1;" vertex="1" parent="1">
          <mxGeometry x="590" y="200" width="115" height="60" as="geometry" />
        </mxCell>
        <mxCell id="JtmKRVAryMtHlBli8rb_-53" value="" style="rhombus;whiteSpace=wrap;html=1;" vertex="1" parent="1">
          <mxGeometry x="600" y="300" width="80" height="50" as="geometry" />
        </mxCell>
        <mxCell id="JtmKRVAryMtHlBli8rb_-54" value="" style="endArrow=classic;html=1;rounded=0;exitX=0.435;exitY=1.033;exitDx=0;exitDy=0;exitPerimeter=0;" edge="1" parent="1" source="JtmKRVAryMtHlBli8rb_-52">
          <mxGeometry width="50" height="50" relative="1" as="geometry">
            <mxPoint x="540" y="170" as="sourcePoint" />
            <mxPoint x="640" y="290" as="targetPoint" />
          </mxGeometry>
        </mxCell>
        <mxCell id="JtmKRVAryMtHlBli8rb_-55" value="" style="endArrow=classic;html=1;rounded=0;exitX=1;exitY=0.5;exitDx=0;exitDy=0;entryX=0;entryY=0;entryDx=0;entryDy=0;" edge="1" parent="1" source="JtmKRVAryMtHlBli8rb_-53" target="JtmKRVAryMtHlBli8rb_-56">
          <mxGeometry width="50" height="50" relative="1" as="geometry">
            <mxPoint x="650" y="272" as="sourcePoint" />
            <mxPoint x="730" y="370" as="targetPoint" />
          </mxGeometry>
        </mxCell>
        <mxCell id="JtmKRVAryMtHlBli8rb_-56" value="Enter New Name" style="rounded=1;whiteSpace=wrap;html=1;" vertex="1" parent="1">
          <mxGeometry x="730" y="353" width="115" height="60" as="geometry" />
        </mxCell>
        <mxCell id="JtmKRVAryMtHlBli8rb_-57" value="Cancel Trip Creation" style="rounded=1;whiteSpace=wrap;html=1;" vertex="1" parent="1">
          <mxGeometry x="450" y="353" width="120" height="57" as="geometry" />
        </mxCell>
        <mxCell id="JtmKRVAryMtHlBli8rb_-58" value="" style="endArrow=classic;html=1;rounded=0;exitX=0;exitY=0.5;exitDx=0;exitDy=0;" edge="1" parent="1" source="JtmKRVAryMtHlBli8rb_-53">
          <mxGeometry width="50" height="50" relative="1" as="geometry">
            <mxPoint x="690" y="335" as="sourcePoint" />
            <mxPoint x="560" y="350" as="targetPoint" />
          </mxGeometry>
        </mxCell>
        <mxCell id="JtmKRVAryMtHlBli8rb_-59" value="Trip Name Taken" style="text;html=1;align=center;verticalAlign=middle;whiteSpace=wrap;rounded=0;" vertex="1" parent="1">
          <mxGeometry x="550" y="150" width="60" height="30" as="geometry" />
        </mxCell>
        <mxCell id="JtmKRVAryMtHlBli8rb_-60" value="Trip Name Not Taken" style="text;html=1;align=center;verticalAlign=middle;whiteSpace=wrap;rounded=0;" vertex="1" parent="1">
          <mxGeometry x="360" y="150" width="60" height="30" as="geometry" />
        </mxCell>
        <mxCell id="JtmKRVAryMtHlBli8rb_-61" value="" style="endArrow=classic;html=1;rounded=0;exitX=0;exitY=0.5;exitDx=0;exitDy=0;" edge="1" parent="1" source="JtmKRVAryMtHlBli8rb_-49">
          <mxGeometry width="50" height="50" relative="1" as="geometry">
            <mxPoint x="540" y="170" as="sourcePoint" />
            <mxPoint x="390" y="200" as="targetPoint" />
            <Array as="points">
              <mxPoint x="420" y="180" />
            </Array>
          </mxGeometry>
        </mxCell>
        <mxCell id="JtmKRVAryMtHlBli8rb_-62" value="Show New Trip Dialog" style="rounded=1;whiteSpace=wrap;html=1;" vertex="1" parent="1">
          <mxGeometry x="290" y="200" width="120" height="60" as="geometry" />
        </mxCell>
        <mxCell id="JtmKRVAryMtHlBli8rb_-63" value="" style="endArrow=classic;html=1;rounded=0;" edge="1" parent="1">
          <mxGeometry width="50" height="50" relative="1" as="geometry">
            <mxPoint x="360" y="260" as="sourcePoint" />
            <mxPoint x="360" y="320" as="targetPoint" />
            <Array as="points" />
          </mxGeometry>
        </mxCell>
        <mxCell id="JtmKRVAryMtHlBli8rb_-64" value="Fill in Trip Data" style="rounded=1;whiteSpace=wrap;html=1;" vertex="1" parent="1">
          <mxGeometry x="290" y="320" width="120" height="60" as="geometry" />
        </mxCell>
        <mxCell id="JtmKRVAryMtHlBli8rb_-65" value="User Pressed Save" style="rounded=1;whiteSpace=wrap;html=1;" vertex="1" parent="1">
          <mxGeometry x="290" y="450" width="120" height="60" as="geometry" />
        </mxCell>
        <mxCell id="JtmKRVAryMtHlBli8rb_-66" value="" style="shape=line;html=1;strokeWidth=6;strokeColor=#ff0000;" vertex="1" parent="1">
          <mxGeometry x="285" y="560" width="130" height="10" as="geometry" />
        </mxCell>
        <mxCell id="JtmKRVAryMtHlBli8rb_-68" value="" style="endArrow=classic;html=1;rounded=0;" edge="1" parent="1">
          <mxGeometry width="50" height="50" relative="1" as="geometry">
            <mxPoint x="360" y="381" as="sourcePoint" />
            <mxPoint x="360" y="440" as="targetPoint" />
            <Array as="points" />
          </mxGeometry>
        </mxCell>
        <mxCell id="JtmKRVAryMtHlBli8rb_-70" value="" style="endArrow=classic;html=1;rounded=0;entryX=0.6;entryY=0.2;entryDx=0;entryDy=0;entryPerimeter=0;exitX=0.583;exitY=1.017;exitDx=0;exitDy=0;exitPerimeter=0;" edge="1" parent="1" source="JtmKRVAryMtHlBli8rb_-65" target="JtmKRVAryMtHlBli8rb_-66">
          <mxGeometry width="50" height="50" relative="1" as="geometry">
            <mxPoint x="365" y="510" as="sourcePoint" />
            <mxPoint x="370" y="560" as="targetPoint" />
            <Array as="points">
              <mxPoint x="360" y="530" />
            </Array>
          </mxGeometry>
        </mxCell>
        <mxCell id="JtmKRVAryMtHlBli8rb_-71" value="" style="endArrow=classic;html=1;rounded=0;" edge="1" parent="1">
          <mxGeometry width="50" height="50" relative="1" as="geometry">
            <mxPoint x="320" y="580" as="sourcePoint" />
            <mxPoint x="250" y="640" as="targetPoint" />
            <Array as="points" />
          </mxGeometry>
        </mxCell>
        <mxCell id="JtmKRVAryMtHlBli8rb_-72" value="" style="endArrow=classic;html=1;rounded=0;" edge="1" parent="1">
          <mxGeometry width="50" height="50" relative="1" as="geometry">
            <mxPoint x="380" y="580" as="sourcePoint" />
            <mxPoint x="440" y="640" as="targetPoint" />
            <Array as="points" />
          </mxGeometry>
        </mxCell>
        <mxCell id="JtmKRVAryMtHlBli8rb_-73" value="Save Trip to Local DB" style="rounded=1;whiteSpace=wrap;html=1;" vertex="1" parent="1">
          <mxGeometry x="210" y="650" width="120" height="60" as="geometry" />
        </mxCell>
        <mxCell id="JtmKRVAryMtHlBli8rb_-74" value="Upload to Server" style="rounded=1;whiteSpace=wrap;html=1;" vertex="1" parent="1">
          <mxGeometry x="410" y="650" width="120" height="60" as="geometry" />
        </mxCell>
        <mxCell id="JtmKRVAryMtHlBli8rb_-76" value="" style="shape=line;html=1;strokeWidth=6;strokeColor=#ff0000;" vertex="1" parent="1">
          <mxGeometry x="285" y="780" width="130" height="10" as="geometry" />
        </mxCell>
        <mxCell id="JtmKRVAryMtHlBli8rb_-77" value="" style="endArrow=classic;html=1;rounded=0;exitX=0.75;exitY=1;exitDx=0;exitDy=0;" edge="1" parent="1" source="JtmKRVAryMtHlBli8rb_-73" target="JtmKRVAryMtHlBli8rb_-76">
          <mxGeometry width="50" height="50" relative="1" as="geometry">
            <mxPoint x="330" y="590" as="sourcePoint" />
            <mxPoint x="260" y="650" as="targetPoint" />
            <Array as="points" />
          </mxGeometry>
        </mxCell>
        <mxCell id="JtmKRVAryMtHlBli8rb_-78" value="" style="endArrow=classic;html=1;rounded=0;exitX=0.183;exitY=1.067;exitDx=0;exitDy=0;exitPerimeter=0;" edge="1" parent="1" source="JtmKRVAryMtHlBli8rb_-74">
          <mxGeometry width="50" height="50" relative="1" as="geometry">
            <mxPoint x="310" y="720" as="sourcePoint" />
            <mxPoint x="370" y="780" as="targetPoint" />
            <Array as="points">
              <mxPoint x="370" y="780" />
            </Array>
          </mxGeometry>
        </mxCell>
        <mxCell id="JtmKRVAryMtHlBli8rb_-81" value="" style="ellipse;html=1;shape=endState;fillColor=#000000;strokeColor=#ff0000;" vertex="1" parent="1">
          <mxGeometry x="660" y="826" width="30" height="30" as="geometry" />
        </mxCell>
        <mxCell id="JtmKRVAryMtHlBli8rb_-82" value="" style="endArrow=classic;html=1;rounded=0;exitX=1;exitY=0.5;exitDx=0;exitDy=0;" edge="1" parent="1">
          <mxGeometry width="50" height="50" relative="1" as="geometry">
            <mxPoint x="390" y="840" as="sourcePoint" />
            <mxPoint x="640" y="840" as="targetPoint" />
            <Array as="points" />
          </mxGeometry>
        </mxCell>
        <mxCell id="JtmKRVAryMtHlBli8rb_-83" value="" style="endArrow=classic;html=1;rounded=0;entryX=0.5;entryY=0;entryDx=0;entryDy=0;" edge="1" parent="1">
          <mxGeometry width="50" height="50" relative="1" as="geometry">
            <mxPoint x="350" y="790" as="sourcePoint" />
            <mxPoint x="350" y="820" as="targetPoint" />
            <Array as="points" />
          </mxGeometry>
        </mxCell>
        <mxCell id="JtmKRVAryMtHlBli8rb_-84" value="" style="endArrow=classic;html=1;rounded=0;entryX=0;entryY=0;entryDx=0;entryDy=0;" edge="1" parent="1" source="JtmKRVAryMtHlBli8rb_-57" target="JtmKRVAryMtHlBli8rb_-81">
          <mxGeometry width="50" height="50" relative="1" as="geometry">
            <mxPoint x="400" y="850" as="sourcePoint" />
            <mxPoint x="650" y="850" as="targetPoint" />
            <Array as="points" />
          </mxGeometry>
        </mxCell>
        <mxCell id="JtmKRVAryMtHlBli8rb_-85" value="" style="endArrow=open;endFill=1;endSize=12;html=1;rounded=0;" edge="1" parent="1">
          <mxGeometry width="160" relative="1" as="geometry">
            <mxPoint x="770" y="130" as="sourcePoint" />
            <mxPoint x="500" y="130" as="targetPoint" />
          </mxGeometry>
        </mxCell>
        <mxCell id="JtmKRVAryMtHlBli8rb_-86" value="" style="endArrow=none;html=1;rounded=0;" edge="1" parent="1">
          <mxGeometry width="50" height="50" relative="1" as="geometry">
            <mxPoint x="770" y="340" as="sourcePoint" />
            <mxPoint x="770" y="130" as="targetPoint" />
          </mxGeometry>
        </mxCell>
        <mxCell id="JtmKRVAryMtHlBli8rb_-87" value="Notify User" style="rounded=1;whiteSpace=wrap;html=1;" vertex="1" parent="1">
          <mxGeometry x="290" y="826" width="120" height="60" as="geometry" />
        </mxCell>
      </root>
    </mxGraphModel>
  </diagram>
</mxfile>
